<svg width="23" height="23" viewBox="0 0 23 23" fill="none" xmlns="http://www.w3.org/2000/svg">
<path fill-rule="evenodd" clip-rule="evenodd" d="M20.3665 10.424C20.2535 11.052 19.6965 11.513 19.0365 11.501H17.3665V2.501H19.0545C19.6965 2.452 20.2525 2.948 20.3665 3.577V10.424ZM15.3665 12.288L11.7585 20.406C10.9515 20.148 10.3665 19.391 10.3665 18.501V14.501C10.3665 13.948 9.91853 13.501 9.36653 13.501H3.69753C3.65153 13.498 3.59053 13.499 3.53353 13.49C2.98853 13.407 2.61253 12.896 2.69453 12.352L4.07553 3.351C4.14953 2.861 4.60153 2.522 5.08653 2.501H15.3665V12.288ZM22.3575 3.366C22.1355 1.723 20.7305 0.5 19.0945 0.5C19.0755 0.5 19.0555 0.5 19.0365 0.501H5.09753C3.61053 0.511 2.32053 1.581 2.09853 3.049L0.717531 12.051C0.470531 13.686 1.59853 15.218 3.23053 15.466C3.39053 15.491 3.55353 15.503 3.70653 15.501H8.36653V18.501C8.36653 20.707 10.1605 22.501 12.3665 22.501C12.7625 22.501 13.1195 22.268 13.2805 21.907L17.0155 13.501H19.0185C20.6885 13.506 22.1325 12.298 22.3575 10.635C22.3635 10.591 22.3665 10.546 22.3665 10.501V3.501C22.3665 3.456 22.3635 3.411 22.3575 3.366Z" fill="#313037"/>
</svg>
